# xmcd
#
# Track frame offsets: 
#        150
#        1683
#        20986
#        35588
#        50407
#        69684
#        81679
#        98418
#        114931
#        130811
#        142986
#        155606
#        172410
#
# Disc length: 2557 seconds
#
# Revision: 0
# Processed by: cddbd v1.5.2PL0 Copyright (c) Steve Scherf et al.
# Submitted via: ExactAudioCopy v1.0b3
#
DISCID=b009fb0d
DTITLE=Ron Spencer Band - Roller Coaster Blues
DYEAR=2009
DGENRE=Blues
TTITLE0=20 Second Boogie Woogie
TTITLE1=Losin' End
TTITLE2=Feel So Bad
TTITLE3=That Door
TTITLE4=Roller Coaster Blues
TTITLE5=Brand New Way Of Hurtin'
TTITLE6=What I Wouldn't Do
TTITLE7=Such A Fool
TTITLE8=Lover's Plea
TTITLE9=Your Kiss
TTITLE10=Oh, Baby Doll
TTITLE11=Devil Baby
TTITLE12=Into The Fire
EXTD=
EXTT0=
EXTT1=
EXTT2=
EXTT3=
EXTT4=
EXTT5=
EXTT6=
EXTT7=
EXTT8=
EXTT9=
EXTT10=
EXTT11=
EXTT12=
PLAYORDER=
